<?xml version="1.0" encoding="utf-8"?>
<!-- Generator: Adobe Illustrator 16.0.0, SVG Export Plug-In . SVG Version: 6.00 Build 0)  -->
<!DOCTYPE svg PUBLIC "-//W3C//DTD SVG 1.1//EN" "http://www.w3.org/Graphics/SVG/1.1/DTD/svg11.dtd">
<svg version="1.1" xmlns="http://www.w3.org/2000/svg" xmlns:xlink="http://www.w3.org/1999/xlink" x="0px" y="0px" width="300px"
	 height="300px" viewBox="0 0 300 300" enable-background="new 0 0 300 300" xml:space="preserve">
<g id="Layer_2">
	<circle fill="#FFFFFF" cx="150" cy="150" r="149.75"/>
</g>
<g id="Layer_6">
	<g id="Layer_3">
		<linearGradient id="SVGID_1_" gradientUnits="userSpaceOnUse" x1="150.0005" y1="279" x2="150.0005" y2="21.001">
			<stop  offset="0" style="stop-color:#1D1D1D"/>
			<stop  offset="1" style="stop-color:#505050"/>
		</linearGradient>
		<circle fill="url(#SVGID_1_)" cx="150" cy="150" r="129"/>
		<path fill="none" stroke="#000000" stroke-width="7" stroke-miterlimit="10" d="M25.031,117.882"/>
	</g>
</g>
<g id="Layer_4">
	<path fill="none" stroke="#000000" stroke-width="16" stroke-miterlimit="10" d="M38.067,198.436"/>
	<path fill="none" stroke="#000000" stroke-width="20" stroke-miterlimit="10" d="M175.388,198.436"/>
	<path fill="none" stroke="#000000" stroke-width="20" stroke-miterlimit="10" d="M175.388,198.436"/>
	<path fill="none" stroke="#000000" stroke-width="20" stroke-miterlimit="10" d="M219.833,100.5"/>
	<g id="Layer_5">
	</g>
	<path fill="none" stroke="#000000" stroke-width="20" stroke-miterlimit="10" d="M48.667,204.076"/>
	<g>
		<g>
			<path fill="#FFFFFF" d="M196.02,147.19c4.858-8.932,7.771-19.228,11.093-28.794c3.583-10.319,6.872-20.804,11.045-30.905
				c-5.571,1.471-11.143,2.942-16.714,4.413c13.754,13.753,28.637,26.704,41.473,41.335c3.597,4.1,10.478,3.664,14.143,0
				c4.04-4.041,3.591-10.049,0-14.143c-12.836-14.631-27.719-27.582-41.473-41.335c-5.821-5.821-13.943-2.292-16.714,4.413
				c-4.012,9.708-7.194,19.778-10.628,29.7c-1.835,5.303-3.686,10.601-5.622,15.867c-0.779,2.122-1.588,4.233-2.428,6.332
				c-0.745,1.861,0.677-1.466-0.464,1.061c-0.301,0.667-0.631,1.319-0.98,1.961C172.586,148.427,189.855,158.521,196.02,147.19
				L196.02,147.19z"/>
		</g>
	</g>
	<g>
		<path fill="#FFFFFF" stroke="#FFFFFF" stroke-width="8" stroke-miterlimit="10" d="M221.021,92.198
			c0,1.148,13.597,66.633,13.677,67.749c1.499,21.109-5.788,38.251-15.911,48.29c-9.917,9.839-21.962,14.769-36.15,14.769
			c-10.632,0-19.835-3.875-27.645-11.604c-4.95-4.93-8.505-10.204-10.633-15.822c-9.203-20.406-17.36-38.687-24.455-54.856
			c-3.538-9.149-7.077-15.478-10.632-18.989c-2.824-2.818-7.442-4.219-13.822-4.219c-6.379,0-12.042,2.455-17.012,7.384
			c-5.663,5.621-8.506,15.824-8.506,30.592c0,13.351,3.19,23.208,9.57,29.537c5.682,5.62,12.758,8.439,21.265,8.439v24.265
			c-13.456,0-25.152-4.931-35.086-14.771c-11.331-11.258-17.012-27.788-17.012-49.579c0-20.406,4.97-35.521,14.885-45.361
			c9.935-9.857,21.63-14.769,35.088-14.769c10.631,0,19.138,3.164,25.517,9.495c4.254,4.219,7.442,9.131,9.57,14.769
			c3.555,7.73,8.157,17.933,13.822,30.592c4.966,11.24,9.22,20.39,12.758,27.428c3.557,7.73,7.095,13.35,10.634,16.878
			c4.253,4.22,9.568,6.33,15.948,6.33c5.682,0,11.349-2.82,17.012-8.439c6.476-6.421,10.1-15.732,10.552-28.911
			c0.222-6.457-13.635-66.847-13.635-68.141"/>
	</g>
	
		<ellipse fill="#FFFFFF" stroke="#FFFFFF" stroke-width="7" stroke-miterlimit="10" cx="102.651" cy="205.612" rx="13.145" ry="12.613"/>
</g>
</svg>
